<?xml version="1.0" standalone="no"?>
<!DOCTYPE svg PUBLIC "-//W3C//DTD SVG 20010904//EN"
 "http://www.w3.org/TR/2001/REC-SVG-20010904/DTD/svg10.dtd">
<svg version="1.0" xmlns="http://www.w3.org/2000/svg"
 width="96.000000pt" height="96.000000pt" viewBox="0 0 96.000000 96.000000"
 preserveAspectRatio="xMidYMid meet">

<g transform="translate(0.000000,96.000000) scale(0.100000,-0.100000)"
fill="#000000" stroke="none">
<path d="M442 875 c-28 -32 -52 -67 -52 -77 0 -25 49 -78 154 -165 143 -120
236 -214 236 -240 0 -13 4 -23 9 -23 17 0 101 115 101 138 0 30 -60 93 -195
207 -129 109 -192 173 -197 199 -2 16 -13 9 -56 -39z"/>
<path d="M304 728 c-44 -47 -64 -79 -64 -103 1 -28 47 -77 170 -180 139 -116
210 -186 210 -205 0 -8 4 -21 9 -29 6 -10 22 3 60 49 79 94 74 104 -147 285
-131 108 -160 137 -197 199 -9 15 -14 13 -41 -16z"/>
<path d="M132 535 c-28 -32 -52 -68 -52 -79 1 -31 40 -72 207 -210 160 -132
183 -157 183 -193 0 -13 4 -23 10 -23 17 0 100 114 100 137 0 32 -38 72 -200
211 -152 130 -185 164 -191 196 -3 16 -14 9 -57 -39z"/>
</g>
</svg>
